# xmcd CD database file
#
# Track frame offsets:
#	150
#	20578
#	46308
#	74922
#	106160
#	126505
#	157561
#	189119
#	206352
#	232456
#	256215
#	289984
#
# Disc length: 4281 seconds
#
# Revision: 0
# Processed by: cddbd v1.5.2PL0 Copyright (c) Steve Scherf et al.
# Submitted via: CDex 1.51
#
DISCID=ad10b70c
DTITLE=Rebecca Zapen - ZapStar
DYEAR=2006
DGENRE=Jazz
TTITLE0=On the Street Where You Live
TTITLE1=Like Someone in Love
TTITLE2=It Might As Well Be Spring
TTITLE3=How Deep Is the Ocean
TTITLE4=It Ain't Necessarily So
TTITLE5=Things We Said Today
TTITLE6=Nuages
TTITLE7=Bernie's Tune
TTITLE8=I Only Have Eyes For You
TTITLE9=When You Wish Upon a Star
TTITLE10=I Thought About You
TTITLE11=Here Comes the Sun
EXTD=YEAR: 2006
EXTT0=
EXTT1=
EXTT2=
EXTT3=
EXTT4=
EXTT5=
EXTT6=
EXTT7=
EXTT8=
EXTT9=
EXTT10=
EXTT11=
PLAYORDER=
